<svg xmlns="http://www.w3.org/2000/svg" xmlns:xlink="http://www.w3.org/1999/xlink" width="450" zoomAndPan="magnify" viewBox="0 0 337.5 179.999997" height="240" preserveAspectRatio="xMidYMid meet" version="1.2"><defs><clipPath id="5dfe52f577"><path d="M 292.101562 11.367188 L 337 11.367188 L 337 58.546875 L 292.101562 58.546875 Z M 292.101562 11.367188 "/></clipPath></defs><g id="e509e64350"><g clip-rule="nonzero" clip-path="url(#5dfe52f577)"><path style=" stroke:none;fill-rule:nonzero;fill:#ff914d;fill-opacity:1;" d="M 318.59375 13.414062 C 318.59375 13.414062 318.222656 17 311.753906 17.117188 C 305.285156 17.234375 302.789062 11.367188 302.789062 11.367188 L 292.1875 11.367188 L 297.390625 47.304688 C 297.390625 47.304688 300.9375 43.796875 302.789062 47.304688 C 304.972656 51.496094 301.132812 53.601562 301.132812 53.601562 L 304.015625 58.394531 L 334.945312 55.765625 L 336.914062 17.117188 Z M 302.261719 21.074219 C 301.640625 23.257812 300.449219 24.894531 296.902344 24.523438 C 293.355469 24.152344 294.660156 18.558594 294.796875 17.839844 C 294.933594 17.117188 296.609375 14.328125 299.222656 14.835938 C 302.085938 15.402344 302.90625 18.890625 302.261719 21.074219 Z M 318.613281 54.03125 C 318.28125 55.140625 317.699219 55.980469 315.886719 55.804688 C 314.074219 55.628906 314.753906 52.761719 314.8125 52.394531 C 314.871094 52.023438 315.75 50.601562 317.054688 50.851562 C 318.535156 51.125 318.945312 52.917969 318.613281 54.03125 Z M 327.695312 29.492188 C 327.617188 30.933594 328.144531 37.09375 322.921875 37.660156 C 317.699219 38.222656 316.566406 33.644531 316.703125 32.125 C 316.839844 30.605469 318.613281 25.320312 324.128906 25.457031 C 326 25.496094 327.773438 28.050781 327.695312 29.492188 Z M 327.695312 29.492188 "/></g><g style="fill:#000000;fill-opacity:1;"><g transform="translate(0.210572, 136.885559)"><path style="stroke:none" d="M 75.875 1.875 C 72.800781 1.875 70.039062 0.242188 67.59375 -3.015625 C 65.15625 -6.273438 63.023438 -10.175781 61.203125 -14.71875 C 59.390625 -19.269531 57.882812 -23.941406 56.6875 -28.734375 C 55.488281 -33.523438 54.601562 -37.503906 54.03125 -40.671875 C 53.257812 -38.753906 52.226562 -36.40625 50.9375 -33.625 C 49.644531 -30.84375 48.160156 -27.921875 46.484375 -24.859375 C 44.804688 -21.796875 43.007812 -18.707031 41.09375 -15.59375 C 39.175781 -12.476562 37.1875 -9.675781 35.125 -7.1875 C 33.070312 -4.695312 31.015625 -2.679688 28.953125 -1.140625 C 26.890625 0.390625 24.898438 1.15625 22.984375 1.15625 C 20.398438 1.15625 18.125 -0.0859375 16.15625 -2.578125 C 14.195312 -5.078125 12.546875 -8.335938 11.203125 -12.359375 C 9.867188 -16.378906 8.742188 -20.832031 7.828125 -25.71875 C 6.921875 -30.601562 6.226562 -35.488281 5.75 -40.375 C 5.269531 -45.257812 4.929688 -49.804688 4.734375 -54.015625 C 4.546875 -58.234375 4.453125 -61.640625 4.453125 -64.234375 C 4.453125 -66.628906 4.570312 -68.925781 4.8125 -71.125 C 5.050781 -73.332031 5.53125 -75.296875 6.25 -77.015625 C 6.96875 -78.742188 8.019531 -80.109375 9.40625 -81.109375 C 10.800781 -82.117188 12.644531 -82.625 14.9375 -82.625 C 17.144531 -82.625 19.035156 -81.804688 20.609375 -80.171875 C 22.191406 -78.546875 23.507812 -76.414062 24.5625 -73.78125 C 25.625 -71.144531 26.488281 -68.175781 27.15625 -64.875 C 27.820312 -61.570312 28.347656 -58.21875 28.734375 -54.8125 C 29.117188 -51.414062 29.382812 -48.113281 29.53125 -44.90625 C 29.675781 -41.695312 29.796875 -38.941406 29.890625 -36.640625 C 30.460938 -38.648438 31.273438 -41.113281 32.328125 -44.03125 C 33.378906 -46.957031 34.523438 -50.070312 35.765625 -53.375 C 37.015625 -56.6875 38.382812 -59.96875 39.875 -63.21875 C 41.363281 -66.476562 42.847656 -69.398438 44.328125 -71.984375 C 45.816406 -74.578125 47.273438 -76.6875 48.703125 -78.3125 C 50.140625 -79.9375 51.53125 -80.75 52.875 -80.75 L 53.015625 -80.75 C 54.742188 -80.75 56.421875 -79.9375 58.046875 -78.3125 C 59.679688 -76.6875 61.265625 -74.578125 62.796875 -71.984375 C 64.328125 -69.398438 65.757812 -66.453125 67.09375 -63.140625 C 68.4375 -59.835938 69.679688 -56.488281 70.828125 -53.09375 C 71.984375 -49.695312 72.992188 -46.390625 73.859375 -43.171875 C 74.722656 -39.960938 75.441406 -37.210938 76.015625 -34.921875 C 76.109375 -37.691406 76.25 -40.828125 76.4375 -44.328125 C 76.632812 -47.828125 76.992188 -51.347656 77.515625 -54.890625 C 78.046875 -58.429688 78.765625 -61.878906 79.671875 -65.234375 C 80.585938 -68.585938 81.710938 -71.582031 83.046875 -74.21875 C 84.390625 -76.851562 86.039062 -78.957031 88 -80.53125 C 89.96875 -82.113281 92.25 -82.90625 94.84375 -82.90625 C 97.519531 -82.90625 99.503906 -81.972656 100.796875 -80.109375 C 102.085938 -78.242188 102.734375 -75.96875 102.734375 -73.28125 C 102.734375 -70.40625 102.375 -66.570312 101.65625 -61.78125 C 100.9375 -57 99.953125 -51.804688 98.703125 -46.203125 C 97.460938 -40.597656 96.003906 -34.941406 94.328125 -29.234375 C 92.648438 -23.535156 90.804688 -18.382812 88.796875 -13.78125 C 86.785156 -9.1875 84.675781 -5.425781 82.46875 -2.5 C 80.269531 0.414062 78.070312 1.875 75.875 1.875 Z M 75.875 1.875 "/></g></g><g style="fill:#000000;fill-opacity:1;"><g transform="translate(106.536159, 136.885559)"><path style="stroke:none" d="M 37.796875 5.171875 C 30.992188 5.171875 25.695312 4.285156 21.90625 2.515625 C 18.125 0.742188 15.300781 -1.769531 13.4375 -5.03125 C 11.570312 -8.289062 10.445312 -12.21875 10.0625 -16.8125 C 9.675781 -21.40625 9.484375 -26.53125 9.484375 -32.1875 C 9.484375 -36.6875 9.625 -41.210938 9.90625 -45.765625 C 10.195312 -50.316406 10.628906 -55.175781 11.203125 -60.34375 C 9.867188 -60.34375 8.816406 -60.316406 8.046875 -60.265625 C 7.273438 -60.222656 6.648438 -60.203125 6.171875 -60.203125 C 3.109375 -60.203125 0.453125 -60.875 -1.796875 -62.21875 C -4.046875 -63.5625 -5.171875 -65.617188 -5.171875 -68.390625 C -5.171875 -70.117188 -4.523438 -71.648438 -3.234375 -72.984375 C -1.941406 -74.328125 -0.289062 -75.476562 1.71875 -76.4375 C 3.726562 -77.394531 5.90625 -78.160156 8.25 -78.734375 C 10.601562 -79.316406 12.832031 -79.703125 14.9375 -79.890625 C 14.9375 -82.578125 15.128906 -85.546875 15.515625 -88.796875 C 15.898438 -92.054688 16.59375 -95.097656 17.59375 -97.921875 C 18.601562 -100.753906 19.96875 -103.125 21.6875 -105.03125 C 23.414062 -106.945312 25.625 -107.90625 28.3125 -107.90625 C 29.84375 -107.90625 31.207031 -107.453125 32.40625 -106.546875 C 33.601562 -105.640625 34.582031 -104.488281 35.34375 -103.09375 C 36.113281 -101.707031 36.6875 -100.148438 37.0625 -98.421875 C 37.445312 -96.703125 37.640625 -95.03125 37.640625 -93.40625 C 37.640625 -91.488281 37.492188 -89.519531 37.203125 -87.5 C 36.921875 -85.488281 36.398438 -83 35.640625 -80.03125 C 37.265625 -80.226562 38.363281 -80.347656 38.9375 -80.390625 C 39.507812 -80.441406 40.035156 -80.46875 40.515625 -80.46875 C 42.148438 -80.46875 43.851562 -80.320312 45.625 -80.03125 C 47.394531 -79.75 49.019531 -79.269531 50.5 -78.59375 C 51.988281 -77.925781 53.210938 -77.039062 54.171875 -75.9375 C 55.128906 -74.832031 55.609375 -73.515625 55.609375 -71.984375 C 55.609375 -70.265625 54.910156 -68.734375 53.515625 -67.390625 C 52.128906 -66.046875 50.382812 -64.894531 48.28125 -63.9375 C 46.175781 -62.976562 43.925781 -62.234375 41.53125 -61.703125 C 39.132812 -61.179688 36.882812 -60.828125 34.78125 -60.640625 C 34.195312 -56.710938 33.785156 -53.09375 33.546875 -49.78125 C 33.304688 -46.476562 33.046875 -43.148438 32.765625 -39.796875 C 32.566406 -38.171875 32.394531 -36.519531 32.25 -34.84375 C 32.113281 -33.164062 32.046875 -31.46875 32.046875 -29.75 C 32.046875 -28.5 32.09375 -27.035156 32.1875 -25.359375 C 32.28125 -23.679688 32.613281 -22.078125 33.1875 -20.546875 C 33.769531 -19.015625 34.679688 -17.695312 35.921875 -16.59375 C 37.171875 -15.488281 38.894531 -14.9375 41.09375 -14.9375 C 42.4375 -14.9375 43.828125 -15.054688 45.265625 -15.296875 C 46.703125 -15.535156 48.140625 -15.65625 49.578125 -15.65625 C 52.066406 -15.65625 53.859375 -14.789062 54.953125 -13.0625 C 56.054688 -11.34375 56.609375 -9.144531 56.609375 -6.46875 C 56.609375 -4.457031 56.007812 -2.707031 54.8125 -1.21875 C 53.613281 0.257812 52.101562 1.453125 50.28125 2.359375 C 48.46875 3.273438 46.4375 3.972656 44.1875 4.453125 C 41.9375 4.929688 39.804688 5.171875 37.796875 5.171875 Z M 37.796875 5.171875 "/></g></g><g style="fill:#000000;fill-opacity:1;"><g transform="translate(161.710517, 136.885559)"><path style="stroke:none" d="M 57.625 -55.171875 C 57.625 -54.691406 57.570312 -54.1875 57.46875 -53.65625 C 57.375 -53.132812 57.234375 -52.632812 57.046875 -52.15625 C 56.179688 -49.957031 54.835938 -48.113281 53.015625 -46.625 C 51.203125 -45.144531 49.050781 -44.40625 46.5625 -44.40625 C 42.820312 -44.40625 40.28125 -46.269531 38.9375 -50 C 38.75 -50.476562 38.65625 -51.03125 38.65625 -51.65625 C 38.65625 -52.28125 38.609375 -52.925781 38.515625 -53.59375 L 38.515625 -57.765625 C 38.316406 -59.109375 37.976562 -60.160156 37.5 -60.921875 C 37.019531 -61.691406 36.207031 -62.078125 35.0625 -62.078125 C 33.4375 -62.078125 31.878906 -61.046875 30.390625 -58.984375 C 28.898438 -56.921875 27.601562 -54.476562 26.5 -51.65625 C 25.40625 -48.832031 24.519531 -45.9375 23.84375 -42.96875 C 23.175781 -40 22.84375 -37.601562 22.84375 -35.78125 C 22.84375 -34.34375 22.9375 -32.59375 23.125 -30.53125 C 23.320312 -28.46875 23.707031 -26.476562 24.28125 -24.5625 C 24.851562 -22.65625 25.640625 -21.003906 26.640625 -19.609375 C 27.648438 -18.222656 28.972656 -17.53125 30.609375 -17.53125 C 32.234375 -17.53125 33.738281 -18.03125 35.125 -19.03125 C 36.519531 -20.039062 37.890625 -21.21875 39.234375 -22.5625 C 40.472656 -23.707031 41.832031 -24.898438 43.3125 -26.140625 C 44.800781 -27.390625 46.503906 -28.015625 48.421875 -28.015625 C 50.816406 -28.015625 52.707031 -27.148438 54.09375 -25.421875 C 55.488281 -23.703125 56.1875 -21.742188 56.1875 -19.546875 C 56.1875 -16.285156 55.320312 -13.238281 53.59375 -10.40625 C 51.875 -7.582031 49.71875 -5.140625 47.125 -3.078125 C 44.539062 -1.023438 41.664062 0.597656 38.5 1.796875 C 35.34375 2.992188 32.328125 3.59375 29.453125 3.59375 C 24.285156 3.59375 19.90625 2.300781 16.3125 -0.28125 C 12.71875 -2.875 9.816406 -6.15625 7.609375 -10.125 C 5.410156 -14.101562 3.832031 -18.4375 2.875 -23.125 C 1.914062 -27.820312 1.4375 -32.28125 1.4375 -36.5 C 1.4375 -41.382812 2.101562 -46.675781 3.4375 -52.375 C 4.78125 -58.070312 6.84375 -63.363281 9.625 -68.25 C 12.40625 -73.132812 15.972656 -77.207031 20.328125 -80.46875 C 24.691406 -83.726562 29.890625 -85.359375 35.921875 -85.359375 C 39.660156 -85.359375 42.894531 -84.539062 45.625 -82.90625 C 48.351562 -81.28125 50.601562 -79.148438 52.375 -76.515625 C 54.144531 -73.878906 55.484375 -70.929688 56.390625 -67.671875 C 57.304688 -64.421875 57.765625 -61.210938 57.765625 -58.046875 C 57.765625 -57.566406 57.765625 -57.085938 57.765625 -56.609375 C 57.765625 -56.128906 57.71875 -55.648438 57.625 -55.171875 Z M 57.625 -55.171875 "/></g></g><g style="fill:#000000;fill-opacity:1;"><g transform="translate(223.063265, 136.885559)"><path style="stroke:none" d="M 68.109375 -77.3125 C 68.109375 -74.625 67.410156 -71.890625 66.015625 -69.109375 C 64.628906 -66.335938 62.953125 -63.585938 60.984375 -60.859375 C 59.023438 -58.128906 56.96875 -55.539062 54.8125 -53.09375 C 52.65625 -50.65625 50.765625 -48.425781 49.140625 -46.40625 C 50.484375 -44.300781 52.160156 -41.5 54.171875 -38 C 56.179688 -34.507812 58.097656 -30.800781 59.921875 -26.875 C 61.742188 -22.945312 63.300781 -19.113281 64.59375 -15.375 C 65.882812 -11.632812 66.53125 -8.519531 66.53125 -6.03125 C 66.53125 -4.019531 65.90625 -2.175781 64.65625 -0.5 C 63.414062 1.175781 61.691406 2.015625 59.484375 2.015625 C 57.859375 2.015625 56.207031 1.320312 54.53125 -0.0625 C 52.851562 -1.457031 51.175781 -3.28125 49.5 -5.53125 C 47.820312 -7.78125 46.21875 -10.296875 44.6875 -13.078125 C 43.15625 -15.859375 41.742188 -18.585938 40.453125 -21.265625 C 39.160156 -23.953125 38.007812 -26.46875 37 -28.8125 C 35.988281 -31.15625 35.195312 -33.046875 34.625 -34.484375 C 33.382812 -33.242188 32.066406 -32.210938 30.671875 -31.390625 C 29.285156 -30.578125 27.921875 -29.644531 26.578125 -28.59375 C 26.578125 -26.582031 26.503906 -23.753906 26.359375 -20.109375 C 26.222656 -16.472656 25.796875 -12.878906 25.078125 -9.328125 C 24.359375 -5.785156 23.179688 -2.695312 21.546875 -0.0625 C 19.921875 2.5625 17.53125 3.875 14.375 3.875 C 11.882812 3.875 9.96875 2.75 8.625 0.5 C 7.28125 -1.75 6.296875 -4.378906 5.671875 -7.390625 C 5.046875 -10.410156 4.6875 -13.476562 4.59375 -16.59375 C 4.5 -19.707031 4.453125 -22.078125 4.453125 -23.703125 C 4.453125 -30.796875 4.644531 -37.882812 5.03125 -44.96875 C 5.414062 -52.0625 5.65625 -59.148438 5.75 -66.234375 C 5.75 -67.867188 5.769531 -70.003906 5.8125 -72.640625 C 5.863281 -75.273438 6.03125 -78.125 6.3125 -81.1875 C 6.601562 -84.25 7.035156 -87.359375 7.609375 -90.515625 C 8.191406 -93.679688 9.007812 -96.535156 10.0625 -99.078125 C 11.113281 -101.617188 12.476562 -103.675781 14.15625 -105.25 C 15.832031 -106.832031 17.867188 -107.625 20.265625 -107.625 C 21.984375 -107.625 23.441406 -106.976562 24.640625 -105.6875 C 25.835938 -104.394531 26.796875 -102.738281 27.515625 -100.71875 C 28.234375 -98.707031 28.757812 -96.457031 29.09375 -93.96875 C 29.425781 -91.476562 29.664062 -89.007812 29.8125 -86.5625 C 29.957031 -84.125 30.03125 -81.851562 30.03125 -79.75 C 30.03125 -77.644531 30.03125 -75.96875 30.03125 -74.71875 C 30.03125 -73.851562 30.003906 -72.582031 29.953125 -70.90625 C 29.910156 -69.226562 29.863281 -67.476562 29.8125 -65.65625 C 29.769531 -63.84375 29.75 -62.171875 29.75 -60.640625 C 29.75 -59.109375 29.84375 -58.003906 30.03125 -57.328125 C 30.695312 -57.328125 31.703125 -57.972656 33.046875 -59.265625 C 34.390625 -60.566406 35.945312 -62.222656 37.71875 -64.234375 C 39.488281 -66.242188 41.40625 -68.375 43.46875 -70.625 C 45.53125 -72.875 47.632812 -75.003906 49.78125 -77.015625 C 51.9375 -79.023438 54.066406 -80.675781 56.171875 -81.96875 C 58.285156 -83.269531 60.253906 -83.921875 62.078125 -83.921875 C 63.992188 -83.921875 65.476562 -83.25 66.53125 -81.90625 C 67.582031 -80.5625 68.109375 -79.03125 68.109375 -77.3125 Z M 68.109375 -77.3125 "/></g></g></g></svg>